<svg preserveAspectRatio="none" width="100%" height="100%" overflow="visible" style="display: block;" viewBox="0 0 17.3038 17.3038" fill="none" xmlns="http://www.w3.org/2000/svg">
<g id="dot-icon/regular/heart-full">
<path id="Union" d="M8.10909 12.978C8.40764 12.978 8.64996 13.2195 8.65011 13.518C8.65011 13.8167 8.40773 14.059 8.10909 14.059C7.81065 14.0588 7.56905 13.8165 7.56905 13.518C7.5692 13.2197 7.81074 12.9782 8.10909 12.978ZM9.19112 12.977C9.48955 12.9773 9.73115 13.2195 9.73116 13.518C9.73116 13.8165 9.48956 14.0588 9.19112 14.059C8.89248 14.059 8.65011 13.8167 8.65011 13.518C8.65011 13.2194 8.89248 12.977 9.19112 12.977ZM8.11007 11.896C8.40871 11.896 8.65108 12.1383 8.65108 12.437C8.65098 12.7355 8.40865 12.978 8.11007 12.978C7.81163 12.9778 7.57013 12.7354 7.57003 12.437C7.57003 12.1384 7.81157 11.8961 8.11007 11.896ZM10.2722 11.896C10.5708 11.896 10.8132 12.1383 10.8132 12.437C10.8131 12.7355 10.5708 12.978 10.2722 12.978C9.97378 12.9778 9.73224 12.7354 9.73214 12.437C9.73214 12.1385 9.97372 11.8962 10.2722 11.896ZM7.02901 11.896C7.32766 11.896 7.57003 12.1383 7.57003 12.437C7.56978 12.7354 7.3275 12.977 7.02901 12.977C6.73066 12.9769 6.48922 12.7353 6.48897 12.437C6.48897 12.1384 6.73051 11.8961 7.02901 11.896ZM9.19112 11.896C9.48977 11.896 9.73214 12.1383 9.73214 12.437C9.73189 12.7354 9.48961 12.977 9.19112 12.977C8.89281 12.9768 8.65133 12.7353 8.65108 12.437C8.65108 12.1385 8.89266 11.8962 9.19112 11.896ZM7.02608 10.8139C7.32463 10.814 7.56706 11.0564 7.5671 11.3549C7.5671 11.6535 7.32465 11.8959 7.02608 11.896C6.72872 11.896 6.48713 11.6557 6.48507 11.3589C6.48286 11.6555 6.24222 11.8959 5.94503 11.896C5.64645 11.896 5.40412 11.6535 5.40401 11.3549C5.40401 11.0563 5.64638 10.8139 5.94503 10.8139C6.24203 10.814 6.48255 11.0536 6.48507 11.3501C6.48772 11.0537 6.72909 10.8139 7.02608 10.8139ZM8.11104 10.8149C8.40958 10.8149 8.65189 11.0564 8.65206 11.3549C8.65206 11.6536 8.40969 11.896 8.11104 11.896C7.81249 11.8959 7.57003 11.6535 7.57003 11.3549C7.5702 11.0565 7.81259 10.815 8.11104 10.8149ZM9.1921 10.8139C9.49073 10.8139 9.73309 11.0563 9.73311 11.3549C9.73311 11.6536 9.49074 11.896 9.1921 11.896C8.89358 11.8958 8.65206 11.6535 8.65206 11.3549C8.65209 11.0564 8.89359 10.8141 9.1921 10.8139ZM10.2732 10.8149C10.5717 10.8149 10.814 11.0564 10.8142 11.3549C10.8142 11.6536 10.5718 11.896 10.2732 11.896C9.97464 11.8958 9.73311 11.6535 9.73311 11.3549C9.73328 11.0565 9.97474 10.8151 10.2732 10.8149ZM11.3552 9.73288C11.6538 9.73288 11.8961 9.9753 11.8962 10.2739C11.8962 10.5713 11.656 10.8119 11.3591 10.8139C11.6556 10.8164 11.8952 11.0578 11.8952 11.3549C11.8952 11.6536 11.6529 11.896 11.3542 11.896C11.0557 11.8958 10.8142 11.6535 10.8142 11.3549C10.8142 11.0581 11.0531 10.8167 11.3493 10.8139C11.0547 10.8107 10.8162 10.5727 10.8142 10.2778C10.812 10.5746 10.5714 10.8149 10.2741 10.8149C9.97561 10.8148 9.7332 10.5724 9.73311 10.2739C9.73311 9.9753 9.97555 9.73296 10.2741 9.73288C10.5712 9.73288 10.8116 9.97254 10.8142 10.269C10.8168 9.97271 11.0583 9.73297 11.3552 9.73288ZM12.4362 9.73288C12.7349 9.73288 12.9773 9.97525 12.9773 10.2739C12.9772 10.5725 12.7348 10.8149 12.4362 10.8149C12.1378 10.8148 11.8963 10.5724 11.8962 10.2739C11.8962 9.97533 12.1377 9.73301 12.4362 9.73288ZM4.86495 9.73288C5.16342 9.73308 5.40499 9.97538 5.40499 10.2739C5.40477 10.5722 5.16328 10.8137 4.86495 10.8139C4.56644 10.8139 4.32415 10.5724 4.32393 10.2739C4.32393 9.97525 4.5663 9.73288 4.86495 9.73288ZM5.946 9.73288C6.24441 9.73304 6.48588 9.97451 6.48604 10.2729C6.48604 10.5715 6.24451 10.8138 5.946 10.8139C5.64736 10.8139 5.40499 10.5716 5.40499 10.2729C5.40515 9.97441 5.64746 9.73288 5.946 9.73288ZM7.02706 9.73288C7.32557 9.73304 7.5671 9.97535 7.5671 10.2739C7.56688 10.5723 7.32543 10.8138 7.02706 10.8139C6.72855 10.8139 6.48626 10.5723 6.48604 10.2739C6.48604 9.97525 6.72841 9.73288 7.02706 9.73288ZM8.10811 9.73288C8.40656 9.733 8.64799 9.97449 8.64815 10.2729C8.64815 10.5715 8.40666 10.8138 8.10811 10.8139C7.80947 10.8139 7.5671 10.5716 7.5671 10.2729C7.56726 9.97441 7.80957 9.73288 8.10811 9.73288ZM9.18917 9.73288C9.48772 9.73299 9.73018 9.97532 9.73018 10.2739C9.72996 10.5723 9.48758 10.8138 9.18917 10.8139C8.89066 10.8139 8.64837 10.5723 8.64815 10.2739C8.64815 9.97525 8.89052 9.73288 9.18917 9.73288ZM3.78389 8.65182C4.08242 8.65182 4.32471 8.89338 4.32491 9.19186C4.32491 9.49051 4.08254 9.73288 3.78389 9.73288C3.48543 9.73266 3.24386 9.49038 3.24386 9.19186C3.24405 8.89352 3.48555 8.65204 3.78389 8.65182ZM4.86593 7.56979C5.16452 7.56979 5.40686 7.81223 5.40694 8.11081C5.40694 8.40824 5.1668 8.64889 4.86983 8.65085C5.16641 8.65322 5.40591 8.89473 5.40596 9.19186C5.40596 9.49051 5.16359 9.73288 4.86495 9.73288C4.56652 9.73262 4.32491 9.49035 4.32491 9.19186C4.32496 8.89505 4.56392 8.65372 4.86007 8.65085C4.56425 8.64755 4.32589 8.4074 4.32589 8.11081C4.32597 7.81233 4.56746 7.56994 4.86593 7.56979ZM5.946 8.65182C6.24453 8.65182 6.48682 8.89338 6.48702 9.19186C6.48702 9.49051 6.24465 9.73288 5.946 9.73288C5.64758 9.73262 5.40596 9.49035 5.40596 9.19186C5.40616 8.89354 5.6477 8.65208 5.946 8.65182ZM7.02803 8.65085C7.32645 8.65107 7.56802 8.8934 7.56807 9.19186C7.56807 9.49037 7.32649 9.73265 7.02803 9.73288C6.72939 9.73288 6.48702 9.49051 6.48702 9.19186C6.48707 8.89326 6.72942 8.65085 7.02803 8.65085ZM8.10909 8.65182C8.40743 8.65205 8.64894 8.89352 8.64913 9.19186C8.64913 9.49037 8.40755 9.73266 8.10909 9.73288C7.81044 9.73288 7.56807 9.49051 7.56807 9.19186C7.56827 8.89338 7.81056 8.65182 8.10909 8.65182ZM9.19014 8.65085C9.4886 8.65103 9.73013 8.89337 9.73018 9.19186C9.73018 9.49039 9.48863 9.7327 9.19014 9.73288C8.8915 9.73288 8.64913 9.49051 8.64913 9.19186C8.64918 8.89326 8.89153 8.65085 9.19014 8.65085ZM10.2722 7.56979C10.5706 7.57004 10.8122 7.81231 10.8122 8.11081C10.8122 8.40794 10.5727 8.6485 10.2761 8.65085C10.5724 8.65361 10.8112 8.89493 10.8112 9.19186C10.8111 9.49034 10.5697 9.73274 10.2712 9.73288C9.97261 9.73288 9.73027 9.49043 9.73018 9.19186C9.73018 8.89476 9.9698 8.65333 10.2663 8.65085C9.9702 8.64794 9.73122 8.40759 9.73116 8.11081C9.73116 7.81216 9.97353 7.56979 10.2722 7.56979ZM11.3523 8.65085C11.6508 8.65098 11.8922 8.89334 11.8923 9.19186C11.8923 9.49042 11.6508 9.73274 11.3523 9.73288C11.0536 9.73288 10.8112 9.49051 10.8112 9.19186C10.8113 8.89326 11.0536 8.65085 11.3523 8.65085ZM13.5183 8.65182C13.8169 8.65182 14.0593 8.89419 14.0593 9.19284C14.0591 9.49131 13.8168 9.73288 13.5183 9.73288C13.2211 9.73281 12.9795 9.49338 12.9773 9.19674C12.9748 9.4933 12.7343 9.73288 12.4372 9.73288C12.1386 9.73282 11.8962 9.49047 11.8962 9.19186C11.8964 8.89341 12.1387 8.65188 12.4372 8.65182C12.7341 8.65182 12.9744 8.89075 12.9773 9.18698C12.9802 8.8909 13.2215 8.65189 13.5183 8.65182ZM3.78487 7.56979C4.08352 7.56979 4.32589 7.81216 4.32589 8.11081C4.32583 8.4094 4.08348 8.65182 3.78487 8.65182C3.48639 8.65168 3.24489 8.40931 3.24483 8.11081C3.24483 7.81225 3.48635 7.56994 3.78487 7.56979ZM5.94698 7.56979C6.24562 7.56979 6.488 7.81216 6.488 8.11081C6.48794 8.4094 6.24559 8.65182 5.94698 8.65182C5.64853 8.65163 5.407 8.40928 5.40694 8.11081C5.40694 7.81228 5.6485 7.56998 5.94698 7.56979ZM8.10909 7.56979C8.40773 7.56979 8.65011 7.81216 8.65011 8.11081C8.65004 8.4094 8.4077 8.65182 8.10909 8.65182C7.81068 8.65159 7.56911 8.40925 7.56905 8.11081C7.56905 7.81231 7.81065 7.57003 8.10909 7.56979ZM7.02803 7.56979C7.32668 7.56979 7.56905 7.81216 7.56905 8.11081C7.56885 8.40928 7.32656 8.65085 7.02803 8.65085C6.72971 8.65062 6.4882 8.40914 6.488 8.11081C6.488 7.81231 6.72959 7.57002 7.02803 7.56979ZM9.19112 7.56979C9.48955 7.57004 9.73116 7.81232 9.73116 8.11081C9.73096 8.40913 9.48943 8.6506 9.19112 8.65085C8.8926 8.65085 8.65031 8.40928 8.65011 8.11081C8.65011 7.81216 8.89248 7.56979 9.19112 7.56979ZM11.3532 7.56979C11.6517 7.57 11.8933 7.81229 11.8933 8.11081C11.8931 8.40915 11.6516 8.65064 11.3532 8.65085C11.0547 8.65085 10.8124 8.40928 10.8122 8.11081C10.8122 7.81216 11.0546 7.56979 11.3532 7.56979ZM12.4343 7.56979C12.7327 7.56996 12.9741 7.81144 12.9743 8.10983C12.9743 8.40837 12.7328 8.65068 12.4343 8.65085C12.1356 8.65085 11.8933 8.40848 11.8933 8.10983C11.8935 7.81134 12.1358 7.56979 12.4343 7.56979ZM13.5153 7.56979C13.8138 7.56995 14.0554 7.81226 14.0554 8.11081C14.0552 8.40918 13.8137 8.65069 13.5153 8.65085C13.2168 8.65085 12.9745 8.40928 12.9743 8.11081C12.9743 7.81216 13.2167 7.56979 13.5153 7.56979ZM4.863 6.48776C5.16153 6.48783 5.40393 6.73024 5.40401 7.02878C5.40401 7.32738 5.16158 7.56972 4.863 7.56979C4.56561 7.56979 4.324 7.3296 4.32198 7.03268C4.31982 7.32942 4.07918 7.56971 3.78194 7.56979C3.48334 7.56979 3.24099 7.32737 3.24093 7.02878C3.24093 6.73013 3.4833 6.48776 3.78194 6.48776C4.07893 6.48784 4.31942 6.72749 4.32198 7.02389C4.32468 6.72756 4.56603 6.48776 4.863 6.48776ZM5.94796 6.48874C6.24647 6.48874 6.48876 6.73031 6.48897 7.02878C6.48897 7.32742 6.2466 7.56979 5.94796 7.56979C5.64942 7.56967 5.40792 7.32735 5.40792 7.02878C5.40813 6.73039 5.64955 6.48886 5.94796 6.48874ZM7.02901 6.48874C7.32766 6.48874 7.57003 6.73111 7.57003 7.02975C7.56985 7.32825 7.32755 7.56979 7.02901 7.56979C6.73058 7.56966 6.48915 7.32817 6.48897 7.02975C6.48897 6.73119 6.73048 6.48887 7.02901 6.48874ZM8.11007 6.48874C8.40858 6.48874 8.65087 6.73031 8.65108 7.02878C8.65108 7.32742 8.40871 7.56979 8.11007 7.56979C7.81156 7.56962 7.57003 7.32732 7.57003 7.02878C7.57024 6.73042 7.8117 6.48891 8.11007 6.48874ZM9.19112 6.48874C9.48977 6.48874 9.73214 6.73111 9.73214 7.02975C9.73196 7.32825 9.48966 7.56979 9.19112 7.56979C8.89273 7.56962 8.65126 7.32814 8.65108 7.02975C8.65108 6.73122 8.89262 6.48891 9.19112 6.48874ZM10.2722 6.48874C10.5707 6.48874 10.813 6.73031 10.8132 7.02878C10.8132 7.32742 10.5708 7.56979 10.2722 7.56979C9.97371 7.56958 9.73214 7.32729 9.73214 7.02878C9.73235 6.73044 9.97384 6.48895 10.2722 6.48874ZM11.3542 5.40671C11.6528 5.40671 11.8951 5.64916 11.8952 5.94772C11.8952 6.24515 11.6551 6.48581 11.3581 6.48776C11.6547 6.49013 11.8942 6.73166 11.8942 7.02878C11.8942 7.32742 11.6519 7.56979 11.3532 7.56979C11.0548 7.56954 10.8132 7.32726 10.8132 7.02878C10.8133 6.73198 11.0522 6.49063 11.3483 6.48776C11.0525 6.48446 10.8142 6.24431 10.8142 5.94772C10.8143 5.64925 11.0558 5.40686 11.3542 5.40671ZM12.4343 6.48874C12.7328 6.48874 12.9751 6.73031 12.9753 7.02878C12.9753 7.32742 12.7329 7.56979 12.4343 7.56979C12.1359 7.56953 11.8942 7.32726 11.8942 7.02878C11.8945 6.73047 12.136 6.489 12.4343 6.48874ZM13.5163 6.48776C13.8147 6.48799 14.0563 6.73033 14.0564 7.02878C14.0564 7.32728 13.8148 7.56957 13.5163 7.56979C13.2177 7.56979 12.9753 7.32742 12.9753 7.02878C12.9754 6.73019 13.2177 6.48776 13.5163 6.48776ZM5.94503 5.40671C6.24356 5.40684 6.48507 5.64916 6.48507 5.94772C6.48503 6.24625 6.24353 6.4886 5.94503 6.48874C5.6464 6.48874 5.40405 6.24634 5.40401 5.94772C5.40401 5.64908 5.64638 5.40671 5.94503 5.40671ZM9.1921 5.40671C9.49068 5.40671 9.73301 5.64916 9.73311 5.94772C9.73311 6.24637 9.49074 6.48874 9.1921 6.48874C8.89478 6.48863 8.65308 6.2485 8.65108 5.95163C8.64894 6.24844 8.40836 6.48874 8.11104 6.48874C7.81251 6.48864 7.57007 6.24627 7.57003 5.94772C7.57003 5.64914 7.81248 5.40681 8.11104 5.40671C8.40808 5.40671 8.6485 5.64641 8.65108 5.94284C8.6538 5.64659 8.89523 5.40681 9.1921 5.40671ZM10.2732 5.40671C10.5718 5.40671 10.8142 5.64908 10.8142 5.94772C10.8141 6.24633 10.5718 6.48874 10.2732 6.48874C9.97466 6.48859 9.73316 6.24624 9.73311 5.94772C9.73311 5.64917 9.97463 5.40685 10.2732 5.40671ZM12.4353 5.40671C12.7339 5.40671 12.9763 5.64908 12.9763 5.94772C12.9762 6.24633 12.7339 6.48874 12.4353 6.48874C12.1368 6.48854 11.8953 6.24621 11.8952 5.94772C11.8952 5.6492 12.1368 5.4069 12.4353 5.40671ZM4.86397 5.40671C5.1625 5.40685 5.40401 5.64916 5.40401 5.94772C5.40384 6.24613 5.16239 6.48762 4.86397 6.48776C4.56544 6.48776 4.32313 6.24622 4.32296 5.94772C4.32296 5.64908 4.56533 5.40671 4.86397 5.40671ZM7.02608 5.40671C7.32465 5.4068 7.5671 5.64914 7.5671 5.94772C7.56692 6.24616 7.32454 6.48767 7.02608 6.48776C6.72755 6.48776 6.48524 6.24622 6.48507 5.94772C6.48507 5.64908 6.72744 5.40671 7.02608 5.40671ZM5.946 4.32565C6.24433 4.32586 6.4858 4.56737 6.48604 4.86569C6.48604 5.16421 6.24447 5.4065 5.946 5.40671C5.64736 5.40671 5.40499 5.16433 5.40499 4.86569C5.40523 4.56725 5.64751 4.32565 5.946 4.32565ZM7.02706 4.32467C7.3255 4.32484 7.567 4.56723 7.5671 4.86569C7.5671 5.16423 7.32556 5.40654 7.02706 5.40671C6.72841 5.40671 6.48604 5.16433 6.48604 4.86569C6.48614 4.56713 6.72847 4.32467 7.02706 4.32467ZM11.3552 4.32565C11.6538 4.32565 11.8962 4.56802 11.8962 4.86667C11.896 5.16518 11.6537 5.40671 11.3552 5.40671C11.058 5.40662 10.8164 5.16724 10.8142 4.87057C10.8118 5.16716 10.5713 5.40671 10.2741 5.40671C9.97555 5.40663 9.73311 5.16429 9.73311 4.86569C9.73334 4.56729 9.97569 4.32573 10.2741 4.32565C10.571 4.32565 10.8113 4.56461 10.8142 4.86081C10.8172 4.56478 11.0585 4.32573 11.3552 4.32565Z" fill="var(--fill-0, #F39A7D)"/>
</g>
</svg>
